<svg width="60" height="60" viewBox="0 0 60 60" fill="none" xmlns="http://www.w3.org/2000/svg">
<path d="M30 52.8646C42.7025 52.8646 53 42.5975 53 29.9323C53 17.2671 42.7025 7 30 7C17.2975 7 7 17.2671 7 29.9323C7 42.5975 17.2975 52.8646 30 52.8646Z" stroke="url(#paint0_linear)" stroke-width="3.714" stroke-miterlimit="10"/>
<path d="M18.9999 39.7035L11.7 32.325L21.6999 22.354L28.9999 29.6328L18.9999 39.7035Z" fill="url(#paint1_linear)"/>
<path d="M32.6998 40.6004L25.2998 33.2223L35.2998 23.3516L42.6998 30.63L32.6998 40.6004Z" fill="url(#paint2_linear)"/>
<path d="M32.6998 40.6003L25.2998 33.2222L28.9998 29.6328L32.6998 40.6003Z" fill="url(#paint3_linear)"/>
<path d="M46.1999 19.7622L33.3999 21.7564L44.1999 32.525L46.1999 19.7622Z" fill="url(#paint4_linear)"/>
<defs>
<linearGradient id="paint0_linear" x1="5.1" y1="29.8894" x2="54.814" y2="29.8894" gradientUnits="userSpaceOnUse">
<stop stop-color="#8773EB"/>
<stop offset="1" stop-color="#00C4F0"/>
</linearGradient>
<linearGradient id="paint1_linear" x1="25.2227" y1="25.8428" x2="16.6382" y2="34.9709" gradientUnits="userSpaceOnUse">
<stop stop-color="#8773EB"/>
<stop offset="1" stop-color="#00C4F0"/>
</linearGradient>
<linearGradient id="paint2_linear" x1="39.3897" y1="25.8797" x2="28.8071" y2="37.8333" gradientUnits="userSpaceOnUse">
<stop stop-color="#8773EB"/>
<stop offset="1" stop-color="#00C4F0"/>
</linearGradient>
<linearGradient id="paint3_linear" x1="31.6488" y1="34.9917" x2="25.6759" y2="35.7239" gradientUnits="userSpaceOnUse">
<stop stop-color="#8773EB"/>
<stop offset="1" stop-color="#00C4F0"/>
</linearGradient>
<linearGradient id="paint4_linear" x1="37.0938" y1="18.0589" x2="47.8841" y2="28.8807" gradientUnits="userSpaceOnUse">
<stop stop-color="#8773EB"/>
<stop offset="1" stop-color="#00C4F0"/>
</linearGradient>
</defs>
</svg>
